# xmcd
#
# Track frame offsets:
#	150
#	18587
#	41850
#	57487
#	78750
#	96750
#	102575
#	131775
#	152025
#	169000
#
# Disc length: 2718 seconds
#
# Revision: 1
# Processed by: cddbd v1.5.2PL0 Copyright (c) Steve Scherf et al.
# Submitted via: dBpowerAMP V4.0
#
DISCID=820a9c0a
DTITLE=Eric Clapton - Eric Clapton Unplugged "Tears In
DYEAR=1994
DGENRE=Blues
TTITLE0=Before You Accuse Me
TTITLE1=Lonely Stranger
TTITLE2=Nobody Knows You (When You're Down And Out)
TTITLE3=Layla
TTITLE4=Alberta
TTITLE5=Rollin' And Tumblin'
TTITLE6=Running On Faith
TTITLE7=Tears In Heaven
TTITLE8=Circus Left Town
TTITLE9=Old Love
EXTD=Recorded Live on stage 1 at Bray Studios,London,1992\n(Billaki Lemon-Greece)
EXTT0=
EXTT1=
EXTT2=
EXTT3=
EXTT4=
EXTT5=
EXTT6=
EXTT7=
EXTT8=
EXTT9=
PLAYORDER=
